<svg xmlns="http://www.w3.org/2000/svg" viewBox="0 0 64 64" width="64" height="64">
  <rect width="64" height="64" rx="14" fill="#1f2937"/>
  <!-- Left curly brace { -->
  <path d="M20,14 C16,14 14,17 14,20 L14,27 C14,30 11,32 11,32 C11,32 14,34 14,37 L14,44 C14,47 16,50 20,50" stroke="#9ca3af" stroke-width="3.5" stroke-linecap="round" stroke-linejoin="round" fill="none"/>
  <!-- Right curly brace } -->
  <path d="M44,14 C48,14 50,17 50,20 L50,27 C50,30 53,32 53,32 C53,32 50,34 50,37 L50,44 C50,47 48,50 44,50" stroke="#9ca3af" stroke-width="3.5" stroke-linecap="round" stroke-linejoin="round" fill="none"/>
  <!-- Checkmark centered -->
  <polyline points="26,33 31,38 40,26" stroke="#10b981" stroke-width="5" stroke-linecap="round" stroke-linejoin="round" fill="none"/>
</svg>
